<svg width="84" height="84" viewBox="0 0 84 84" fill="none" xmlns="http://www.w3.org/2000/svg">
<path d="M42.0002 37.5691C47.5255 37.5691 52.8245 39.764 56.7316 43.671C60.6386 47.578 62.8335 52.8771 62.8335 58.4024V83.4024H54.5002V58.4024C54.5003 55.214 53.2821 52.1461 51.0948 49.8263C48.9075 47.5066 45.9164 46.1103 42.7335 45.9233L42.0002 45.9024C38.8118 45.9022 35.7439 47.1204 33.4241 49.3078C31.1043 51.4951 29.708 54.4862 29.521 57.6691L29.5002 58.4024V83.4024H21.1668V58.4024C21.1668 52.8771 23.3618 47.578 27.2688 43.671C31.1758 39.764 36.4748 37.5691 42.0002 37.5691ZM14.9168 50.0691C16.0793 50.0691 17.2085 50.2066 18.2918 50.4608C17.5794 52.5816 17.1575 54.7892 17.0377 57.0233L17.0002 58.4024V58.7608C16.5212 58.5894 16.023 58.4774 15.5168 58.4274L14.9168 58.4024C13.3632 58.4025 11.8652 58.9813 10.7151 60.0258C9.56497 61.0704 8.84515 62.5059 8.696 64.0524L8.66683 64.6524V83.4024H0.333496V64.6524C0.333496 60.7847 1.86995 57.0754 4.60486 54.3405C7.33976 51.6055 11.0491 50.0691 14.9168 50.0691ZM69.0835 50.0691C72.9512 50.0691 76.6606 51.6055 79.3955 54.3405C82.1304 57.0754 83.6668 60.7847 83.6668 64.6524V83.4024H75.3335V64.6524C75.3334 63.0987 74.7547 61.6008 73.7101 60.4507C72.6655 59.3006 71.23 58.5807 69.6835 58.4316L69.0835 58.4024C68.3543 58.4024 67.6543 58.5274 67.0002 58.7566V58.4024C67.0002 55.6274 66.5502 52.9608 65.7127 50.4691C66.8163 50.2019 67.948 50.0676 69.0835 50.0691ZM14.9168 25.0691C17.6795 25.0691 20.329 26.1666 22.2825 28.1201C24.236 30.0736 25.3335 32.7231 25.3335 35.4858C25.3335 38.2484 24.236 40.8979 22.2825 42.8515C20.329 44.805 17.6795 45.9024 14.9168 45.9024C12.1542 45.9024 9.50464 44.805 7.55113 42.8515C5.59763 40.8979 4.50016 38.2484 4.50016 35.4858C4.50016 32.7231 5.59763 30.0736 7.55113 28.1201C9.50464 26.1666 12.1542 25.0691 14.9168 25.0691ZM69.0835 25.0691C71.8462 25.0691 74.4957 26.1666 76.4492 28.1201C78.4027 30.0736 79.5002 32.7231 79.5002 35.4858C79.5002 38.2484 78.4027 40.8979 76.4492 42.8515C74.4957 44.805 71.8462 45.9024 69.0835 45.9024C66.3208 45.9024 63.6713 44.805 61.7178 42.8515C59.7643 40.8979 58.6668 38.2484 58.6668 35.4858C58.6668 32.7231 59.7643 30.0736 61.7178 28.1201C63.6713 26.1666 66.3208 25.0691 69.0835 25.0691ZM14.9168 33.4024C14.3643 33.4024 13.8344 33.6219 13.4437 34.0126C13.053 34.4033 12.8335 34.9332 12.8335 35.4858C12.8335 36.0383 13.053 36.5682 13.4437 36.9589C13.8344 37.3496 14.3643 37.5691 14.9168 37.5691C15.4694 37.5691 15.9993 37.3496 16.39 36.9589C16.7807 36.5682 17.0002 36.0383 17.0002 35.4858C17.0002 34.9332 16.7807 34.4033 16.39 34.0126C15.9993 33.6219 15.4694 33.4024 14.9168 33.4024ZM69.0835 33.4024C68.531 33.4024 68.0011 33.6219 67.6104 34.0126C67.2197 34.4033 67.0002 34.9332 67.0002 35.4858C67.0002 36.0383 67.2197 36.5682 67.6104 36.9589C68.0011 37.3496 68.531 37.5691 69.0835 37.5691C69.636 37.5691 70.1659 37.3496 70.5566 36.9589C70.9473 36.5682 71.1668 36.0383 71.1668 35.4858C71.1668 34.9332 70.9473 34.4033 70.5566 34.0126C70.1659 33.6219 69.636 33.4024 69.0835 33.4024ZM42.0002 0.0690918C46.4204 0.0690918 50.6597 1.82504 53.7853 4.95065C56.9109 8.07625 58.6668 12.3155 58.6668 16.7358C58.6668 21.156 56.9109 25.3953 53.7853 28.5209C50.6597 31.6465 46.4204 33.4024 42.0002 33.4024C37.5799 33.4024 33.3407 31.6465 30.215 28.5209C27.0894 25.3953 25.3335 21.156 25.3335 16.7358C25.3335 12.3155 27.0894 8.07625 30.215 4.95065C33.3407 1.82504 37.5799 0.0690918 42.0002 0.0690918ZM42.0002 8.40242C39.79 8.40242 37.6704 9.2804 36.1076 10.8432C34.5448 12.406 33.6668 14.5256 33.6668 16.7358C33.6668 18.9459 34.5448 21.0655 36.1076 22.6283C37.6704 24.1911 39.79 25.0691 42.0002 25.0691C44.2103 25.0691 46.3299 24.1911 47.8927 22.6283C49.4555 21.0655 50.3335 18.9459 50.3335 16.7358C50.3335 14.5256 49.4555 12.406 47.8927 10.8432C46.3299 9.2804 44.2103 8.40242 42.0002 8.40242Z" fill="black"/>
</svg>
