<svg width="84" height="84" viewBox="0 0 84 84" fill="none" xmlns="http://www.w3.org/2000/svg">
<path d="M79.1664 1.6525C74.4886 0.604868 69.71 0.0739095 64.9164 0.0691663C60.3893 -0.218276 55.85 0.392076 51.5595 1.86512C47.2691 3.33817 43.3122 5.64484 39.9164 8.6525C35.4442 13.1247 31.0136 17.5831 26.6247 22.0275C21.5831 21.4858 9.62472 21.1942 1.62472 29.2775C0.848677 30.0582 0.413086 31.1142 0.413086 32.215C0.413086 33.3158 0.848677 34.3718 1.62472 35.1525L48.7081 82.3192C49.4887 83.0952 50.5448 83.5308 51.6456 83.5308C52.7463 83.5308 53.8024 83.0952 54.5831 82.3192C62.7081 73.9858 62.4581 62.2358 61.9581 57.3192L75.3331 43.9858C88.6247 30.6942 82.5831 5.73583 82.3331 4.69417C82.1407 3.94264 81.7424 3.25975 81.1829 2.72236C80.6234 2.18498 79.925 1.81445 79.1664 1.6525ZM69.3331 38.1108L54.4997 52.8608C54.0194 53.3459 53.6655 53.9416 53.4693 54.5955C53.2732 55.2494 53.2407 55.9414 53.3747 56.6108C54.2748 62.185 53.4914 67.901 51.1247 73.0275L10.8331 32.6525C16.0408 30.2557 21.8623 29.528 27.4997 30.5692C28.1667 30.656 28.8448 30.5801 29.4761 30.3479C30.1073 30.1157 30.673 29.7342 31.1247 29.2358C31.1247 29.2358 36.9581 23.1942 45.7497 14.4025C51.1557 10.0613 58 7.91873 64.9164 8.4025C68.1697 8.41862 71.4163 8.6973 74.6247 9.23583C75.6247 15.1942 77.2081 30.2358 69.3331 38.1108Z" fill="black"/>
</svg>
