<svg width="18" height="14" viewBox="0 0 18 14" fill="none" xmlns="http://www.w3.org/2000/svg">
<path d="M0.9 0.875C1.39781 0.875 1.8 1.26602 1.8 1.75V8.75H8.1V4.375C8.1 3.89102 8.50219 3.5 9 3.5H15.3C16.7906 3.5 18 4.67578 18 6.125V12.25C18 12.734 17.5978 13.125 17.1 13.125C16.6022 13.125 16.2 12.734 16.2 12.25V11.375H1.8V12.25C1.8 12.734 1.39781 13.125 0.9 13.125C0.402187 13.125 0 12.734 0 12.25V1.75C0 1.26602 0.402187 0.875 0.9 0.875ZM4.95 3.5C5.54674 3.5 6.11903 3.73047 6.54099 4.1407C6.96295 4.55094 7.2 5.10734 7.2 5.6875C7.2 6.26766 6.96295 6.82406 6.54099 7.2343C6.11903 7.64453 5.54674 7.875 4.95 7.875C4.35326 7.875 3.78097 7.64453 3.35901 7.2343C2.93705 6.82406 2.7 6.26766 2.7 5.6875C2.7 5.10734 2.93705 4.55094 3.35901 4.1407C3.78097 3.73047 4.35326 3.5 4.95 3.5Z" fill="#3D348B"/>
</svg>
