<svg width="43" height="43" viewBox="0 0 43 43" fill="none" xmlns="http://www.w3.org/2000/svg">
<path d="M12.9 34.4C10.535 34.4 8.6215 36.335 8.6215 38.7C8.6215 41.065 10.535 43 12.9 43C15.265 43 17.2 41.065 17.2 38.7C17.2 36.335 15.265 34.4 12.9 34.4ZM0 0V4.3H4.3L12.04 20.6185L9.1375 25.886C8.7935 26.488 8.6 27.1975 8.6 27.95C8.6 30.315 10.535 32.25 12.9 32.25H38.7V27.95H13.803C13.502 27.95 13.2655 27.7135 13.2655 27.4125L13.33 27.1545L15.265 23.65H31.2825C32.895 23.65 34.314 22.7685 35.045 21.4355L42.742 7.482C42.914 7.181 43 6.8155 43 6.45C43 5.2675 42.0325 4.3 40.85 4.3H9.0515L7.0305 0H0ZM34.4 34.4C32.035 34.4 30.1215 36.335 30.1215 38.7C30.1215 41.065 32.035 43 34.4 43C36.765 43 38.7 41.065 38.7 38.7C38.7 36.335 36.765 34.4 34.4 34.4Z" fill="white"/>
</svg>
