<svg width="22" height="22" viewBox="0 0 22 22" fill="none" xmlns="http://www.w3.org/2000/svg">
<path fill-rule="evenodd" clip-rule="evenodd" d="M6.4448 0.0657937C7.61413 0.0119625 7.98696 0 10.9656 0C13.9443 0 14.3171 0.0129594 15.4855 0.0657937C16.6538 0.118628 17.4513 0.305044 18.1491 0.575197C18.8798 0.851331 19.5427 1.28298 20.091 1.84123C20.6493 2.38851 21.0799 3.05044 21.3551 3.78214C21.6262 4.47996 21.8116 5.27746 21.8655 6.4438C21.9193 7.61513 21.9312 7.98796 21.9312 10.9656C21.9312 13.9443 21.9183 14.3171 21.8655 15.4865C21.8126 16.6528 21.6262 17.4503 21.3551 18.1481C21.0799 18.8799 20.6486 19.5429 20.091 20.091C19.5427 20.6493 18.8798 21.0799 18.1491 21.3551C17.4513 21.6262 16.6538 21.8116 15.4874 21.8655C14.3171 21.9193 13.9443 21.9312 10.9656 21.9312C7.98696 21.9312 7.61413 21.9183 6.4448 21.8655C5.27845 21.8126 4.48095 21.6262 3.78314 21.3551C3.05136 21.0799 2.38833 20.6485 1.84023 20.091C1.28236 19.5434 0.850648 18.8807 0.575197 18.1491C0.305044 17.4513 0.119625 16.6538 0.0657937 15.4874C0.0119625 14.3161 0 13.9433 0 10.9656C0 7.98696 0.0129594 7.61413 0.0657937 6.44579C0.118628 5.27746 0.305044 4.47996 0.575197 3.78214C0.851055 3.05052 1.2831 2.38783 1.84123 1.84023C2.38855 1.28248 3.05091 0.850776 3.78214 0.575197C4.47996 0.305044 5.27746 0.119625 6.4438 0.0657937H6.4448ZM15.3967 2.03961C14.2404 1.98677 13.8934 1.97581 10.9656 1.97581C8.0378 1.97581 7.69089 1.98677 6.53452 2.03961C5.46487 2.08845 4.88469 2.26689 4.4979 2.41742C3.9865 2.6168 3.62065 2.85306 3.23685 3.23685C2.87304 3.5908 2.59305 4.02168 2.41742 4.4979C2.26689 4.88469 2.08845 5.46487 2.03961 6.53452C1.98677 7.69089 1.97581 8.0378 1.97581 10.9656C1.97581 13.8934 1.98677 14.2404 2.03961 15.3967C2.08845 16.4664 2.26689 17.0466 2.41742 17.4334C2.59287 17.9089 2.87299 18.3405 3.23685 18.6944C3.59074 19.0583 4.02239 19.3384 4.4979 19.5138C4.88469 19.6644 5.46487 19.8428 6.53452 19.8916C7.69089 19.9445 8.03681 19.9554 10.9656 19.9554C13.8944 19.9554 14.2404 19.9445 15.3967 19.8916C16.4664 19.8428 17.0466 19.6644 17.4334 19.5138C17.9447 19.3145 18.3106 19.0782 18.6944 18.6944C19.0583 18.3405 19.3384 17.9089 19.5138 17.4334C19.6644 17.0466 19.8428 16.4664 19.8916 15.3967C19.9445 14.2404 19.9554 13.8934 19.9554 10.9656C19.9554 8.0378 19.9445 7.69089 19.8916 6.53452C19.8428 5.46487 19.6644 4.88469 19.5138 4.4979C19.3145 3.9865 19.0782 3.62065 18.6944 3.23685C18.3404 2.87306 17.9096 2.59308 17.4334 2.41742C17.0466 2.26689 16.4664 2.08845 15.3967 2.03961ZM9.56502 14.346C10.3472 14.6716 11.2182 14.7156 12.0292 14.4704C12.8402 14.2251 13.5409 13.706 14.0117 13.0015C14.4824 12.297 14.694 11.451 14.6102 10.6079C14.5265 9.76473 14.1526 8.97683 13.5525 8.37873C13.17 7.99641 12.7074 7.70366 12.1981 7.52157C11.6888 7.33947 11.1455 7.27256 10.6072 7.32565C10.069 7.37874 9.54922 7.55051 9.08532 7.82859C8.62143 8.10667 8.22496 8.48415 7.92446 8.93385C7.62396 9.38354 7.42691 9.89427 7.34748 10.4293C7.26806 10.9643 7.30824 11.5102 7.46514 12.0278C7.62203 12.5454 7.89174 13.0218 8.25484 13.4226C8.61794 13.8235 9.06541 14.1389 9.56502 14.346ZM6.98012 6.98012C7.5035 6.45673 8.12485 6.04156 8.80868 5.75831C9.49252 5.47506 10.2254 5.32927 10.9656 5.32927C11.7058 5.32927 12.4387 5.47506 13.1226 5.75831C13.8064 6.04156 14.4277 6.45673 14.9511 6.98012C15.4745 7.5035 15.8897 8.12485 16.1729 8.80868C16.4562 9.49252 16.602 10.2254 16.602 10.9656C16.602 11.7058 16.4562 12.4387 16.1729 13.1226C15.8897 13.8064 15.4745 14.4277 14.9511 14.9511C13.8941 16.0082 12.4605 16.602 10.9656 16.602C9.47077 16.602 8.03714 16.0082 6.98012 14.9511C5.9231 13.8941 5.32927 12.4605 5.32927 10.9656C5.32927 9.47077 5.9231 8.03714 6.98012 6.98012ZM17.852 6.16866C17.9817 6.04632 18.0856 5.89919 18.1574 5.73599C18.2292 5.5728 18.2675 5.39685 18.2701 5.21857C18.2727 5.04029 18.2395 4.8633 18.1725 4.69808C18.1055 4.53286 18.006 4.38277 17.8799 4.2567C17.7538 4.13062 17.6037 4.03112 17.4385 3.96409C17.2733 3.89706 17.0963 3.86386 16.918 3.86646C16.7398 3.86906 16.5638 3.9074 16.4006 3.97922C16.2374 4.05104 16.0903 4.15487 15.9679 4.28457C15.73 4.53681 15.5997 4.87185 15.6048 5.21857C15.6098 5.56529 15.7498 5.89639 15.995 6.14159C16.2402 6.38679 16.5713 6.52677 16.918 6.53182C17.2648 6.53688 17.5998 6.40661 17.852 6.16866Z" fill="#CD486B"/>
</svg>
