<svg width="332" height="79" viewBox="0 0 332 79" fill="none" xmlns="http://www.w3.org/2000/svg">
<path d="M39.5283 25.1027L48.5411 17.6459L39.508 2L30.4749 17.6459L39.4902 25.1027C39.5029 25.1027 39.5156 25.1027 39.5283 25.1027Z" stroke="#FEFDFD" stroke-width="3" stroke-linecap="round" stroke-linejoin="round"/>
<path d="M39.4876 53.9589L30.4749 61.4157L39.508 77.0616L48.5411 61.4157L39.5258 53.9589C39.5131 53.9589 39.5004 53.9589 39.4876 53.9589Z" stroke="#FEFDFD" stroke-width="3" stroke-linecap="round" stroke-linejoin="round"/>
<path d="M29.2775 49.8631L17.6308 48.7622L12.9553 66.2132L30.4063 61.5377L29.3055 49.891C29.3055 49.891 29.2877 49.8732 29.2775 49.8631Z" stroke="#FEFDFD" stroke-width="3" stroke-linecap="round" stroke-linejoin="round"/>
<path d="M49.7436 29.3486L61.3903 30.4494L66.0657 12.9984L48.6147 17.6739L49.7156 29.3206C49.7156 29.3206 49.7334 29.3384 49.7436 29.3486Z" stroke="#FEFDFD" stroke-width="3" stroke-linecap="round" stroke-linejoin="round"/>
<path d="M29.2751 29.3486C29.2751 29.3486 29.2929 29.3308 29.303 29.3206L30.4039 17.6739L12.9529 12.9984L17.6283 30.4494L29.2751 29.3486Z" stroke="#FEFDFD" stroke-width="3" stroke-linecap="round" stroke-linejoin="round"/>
<path d="M77.0185 39.7266L61.3726 30.6935L53.9157 39.7088V39.7469L61.2938 48.6657L49.7411 49.7589C49.7411 49.7589 49.7233 49.7767 49.7132 49.7869L48.6123 61.4336L66.0633 66.109L61.4082 48.7419L77.0159 39.7317L77.0185 39.7266Z" stroke="#FEFDFD" stroke-width="3" stroke-linecap="round" stroke-linejoin="round"/>
<path d="M25.1027 39.7495V39.7114L17.6459 30.696L2 39.7266L17.6459 48.7598L25.1027 39.747V39.7495Z" stroke="#FEFDFD" stroke-width="3" stroke-linecap="round" stroke-linejoin="round"/>
<path d="M39.5078 25.1459C31.5502 25.1459 25.1001 31.5959 25.1001 39.5536C25.1001 47.5113 31.5502 53.9614 39.5078 53.9614C47.4655 53.9614 53.9156 47.5113 53.9156 39.5536C53.9156 31.5959 47.4655 25.1459 39.5078 25.1459Z" fill="url(#paint0_radial_43_218)"/>
<path d="M111.168 55.336C108.704 55.336 106.496 54.936 104.544 54.136C102.592 53.336 101.024 52.152 99.84 50.584C98.688 49.016 98.08 47.128 98.016 44.92H106.752C106.88 46.168 107.312 47.128 108.048 47.8C108.784 48.44 109.744 48.76 110.928 48.76C112.144 48.76 113.104 48.488 113.808 47.944C114.512 47.368 114.864 46.584 114.864 45.592C114.864 44.76 114.576 44.072 114 43.528C113.456 42.984 112.768 42.536 111.936 42.184C111.136 41.832 109.984 41.432 108.48 40.984C106.304 40.312 104.528 39.64 103.152 38.968C101.776 38.296 100.592 37.304 99.6 35.992C98.608 34.68 98.112 32.968 98.112 30.856C98.112 27.72 99.248 25.272 101.52 23.512C103.792 21.72 106.752 20.824 110.4 20.824C114.112 20.824 117.104 21.72 119.376 23.512C121.648 25.272 122.864 27.736 123.024 30.904H114.144C114.08 29.816 113.68 28.968 112.944 28.36C112.208 27.72 111.264 27.4 110.112 27.4C109.12 27.4 108.32 27.672 107.712 28.216C107.104 28.728 106.8 29.48 106.8 30.472C106.8 31.56 107.312 32.408 108.336 33.016C109.36 33.624 110.96 34.28 113.136 34.984C115.312 35.72 117.072 36.424 118.416 37.096C119.792 37.768 120.976 38.744 121.968 40.024C122.96 41.304 123.456 42.952 123.456 44.968C123.456 46.888 122.96 48.632 121.968 50.2C121.008 51.768 119.6 53.016 117.744 53.944C115.888 54.872 113.696 55.336 111.168 55.336ZM140.699 55.384C138.075 55.384 135.707 54.824 133.595 53.704C131.515 52.584 129.867 50.984 128.651 48.904C127.467 46.824 126.875 44.392 126.875 41.608C126.875 38.856 127.483 36.44 128.699 34.36C129.915 32.248 131.579 30.632 133.691 29.512C135.803 28.392 138.171 27.832 140.795 27.832C143.419 27.832 145.787 28.392 147.899 29.512C150.011 30.632 151.675 32.248 152.891 34.36C154.107 36.44 154.715 38.856 154.715 41.608C154.715 44.36 154.091 46.792 152.843 48.904C151.627 50.984 149.947 52.584 147.803 53.704C145.691 54.824 143.323 55.384 140.699 55.384ZM140.699 48.28C142.267 48.28 143.595 47.704 144.683 46.552C145.803 45.4 146.363 43.752 146.363 41.608C146.363 39.464 145.819 37.816 144.731 36.664C143.675 35.512 142.363 34.936 140.795 34.936C139.195 34.936 137.867 35.512 136.811 36.664C135.755 37.784 135.227 39.432 135.227 41.608C135.227 43.752 135.739 45.4 136.763 46.552C137.819 47.704 139.131 48.28 140.699 48.28ZM167.278 19.48V55H159.07V19.48H167.278ZM209.174 55L206.054 51.976C202.95 54.344 199.238 55.528 194.918 55.528C192.326 55.528 190.07 55.112 188.15 54.28C186.23 53.416 184.742 52.216 183.686 50.68C182.662 49.112 182.15 47.288 182.15 45.208C182.15 43.096 182.71 41.192 183.83 39.496C184.982 37.768 186.694 36.36 188.966 35.272C188.134 34.248 187.542 33.272 187.19 32.344C186.838 31.384 186.662 30.344 186.662 29.224C186.662 27.624 187.078 26.168 187.91 24.856C188.742 23.544 189.942 22.52 191.51 21.784C193.11 21.016 194.998 20.632 197.174 20.632C199.382 20.632 201.254 21.032 202.79 21.832C204.326 22.632 205.478 23.704 206.246 25.048C207.014 26.392 207.366 27.864 207.302 29.464H199.574C199.606 28.6 199.382 27.944 198.902 27.496C198.454 27.016 197.846 26.776 197.078 26.776C196.31 26.776 195.67 27 195.158 27.448C194.646 27.896 194.39 28.472 194.39 29.176C194.39 29.848 194.598 30.552 195.014 31.288C195.462 32.024 196.15 32.872 197.078 33.832L205.286 41.848C205.35 41.688 205.43 41.496 205.526 41.272C205.654 41.048 205.782 40.792 205.91 40.504L207.686 37.48H215.894L213.59 41.656C212.726 43.544 211.734 45.336 210.614 47.032L218.726 55H209.174ZM195.302 48.904C197.446 48.904 199.35 48.296 201.014 47.08L193.526 39.832C191.222 41.016 190.07 42.616 190.07 44.632C190.07 45.848 190.534 46.872 191.462 47.704C192.422 48.504 193.702 48.904 195.302 48.904ZM252.267 37.72C254.219 38.136 255.787 39.112 256.971 40.648C258.155 42.152 258.747 43.88 258.747 45.832C258.747 48.648 257.755 50.888 255.771 52.552C253.819 54.184 251.083 55 247.563 55H231.867V21.304H247.035C250.459 21.304 253.131 22.088 255.051 23.656C257.003 25.224 257.979 27.352 257.979 30.04C257.979 32.024 257.451 33.672 256.395 34.984C255.371 36.296 253.995 37.208 252.267 37.72ZM240.075 34.936H245.451C246.795 34.936 247.819 34.648 248.523 34.072C249.259 33.464 249.627 32.584 249.627 31.432C249.627 30.28 249.259 29.4 248.523 28.792C247.819 28.184 246.795 27.88 245.451 27.88H240.075V34.936ZM246.123 48.376C247.499 48.376 248.555 48.072 249.291 47.464C250.059 46.824 250.443 45.912 250.443 44.728C250.443 43.544 250.043 42.616 249.243 41.944C248.475 41.272 247.403 40.936 246.027 40.936H240.075V48.376H246.123ZM261.875 41.56C261.875 38.808 262.387 36.392 263.411 34.312C264.467 32.232 265.891 30.632 267.683 29.512C269.475 28.392 271.475 27.832 273.683 27.832C275.571 27.832 277.219 28.216 278.627 28.984C280.067 29.752 281.171 30.76 281.939 32.008V28.216H290.147V55H281.939V51.208C281.139 52.456 280.019 53.464 278.579 54.232C277.171 55 275.523 55.384 273.635 55.384C271.459 55.384 269.475 54.824 267.683 53.704C265.891 52.552 264.467 50.936 263.411 48.856C262.387 46.744 261.875 44.312 261.875 41.56ZM281.939 41.608C281.939 39.56 281.363 37.944 280.211 36.76C279.091 35.576 277.715 34.984 276.083 34.984C274.451 34.984 273.059 35.576 271.907 36.76C270.787 37.912 270.227 39.512 270.227 41.56C270.227 43.608 270.787 45.24 271.907 46.456C273.059 47.64 274.451 48.232 276.083 48.232C277.715 48.232 279.091 47.64 280.211 46.456C281.363 45.272 281.939 43.656 281.939 41.608ZM294.453 41.56C294.453 38.808 294.965 36.392 295.989 34.312C297.045 32.232 298.469 30.632 300.261 29.512C302.053 28.392 304.053 27.832 306.261 27.832C308.021 27.832 309.621 28.2 311.061 28.936C312.533 29.672 313.685 30.664 314.517 31.912V19.48H322.725V55H314.517V51.16C313.749 52.44 312.645 53.464 311.205 54.232C309.797 55 308.149 55.384 306.261 55.384C304.053 55.384 302.053 54.824 300.261 53.704C298.469 52.552 297.045 50.936 295.989 48.856C294.965 46.744 294.453 44.312 294.453 41.56ZM314.517 41.608C314.517 39.56 313.941 37.944 312.789 36.76C311.669 35.576 310.293 34.984 308.661 34.984C307.029 34.984 305.637 35.576 304.485 36.76C303.365 37.912 302.805 39.512 302.805 41.56C302.805 43.608 303.365 45.24 304.485 46.456C305.637 47.64 307.029 48.232 308.661 48.232C310.293 48.232 311.669 47.64 312.789 46.456C313.941 45.272 314.517 43.656 314.517 41.608Z" fill="white"/>
<defs>
<radialGradient id="paint0_radial_43_218" cx="0" cy="0" r="1" gradientUnits="userSpaceOnUse" gradientTransform="translate(39.5059 39.5319) rotate(163.33) scale(14.4103)">
<stop stop-color="#F9F9F9"/>
<stop offset="1" stop-color="#EAE8E3"/>
</radialGradient>
</defs>
</svg>
