<svg width="336" height="78" viewBox="0 0 336 78" fill="none" xmlns="http://www.w3.org/2000/svg">
<path d="M41.6924 25.0109L51.2737 17.6825L41.6708 2.30615L32.0679 17.6825L41.6519 25.0109C41.6654 25.0109 41.6789 25.0109 41.6924 25.0109Z" stroke="#F18701" stroke-width="3" stroke-linecap="round" stroke-linejoin="round"/>
<path d="M41.6491 53.3701L32.0679 60.6985L41.6708 76.0749L51.2737 60.6985L41.6897 53.3701C41.6762 53.3701 41.6627 53.3701 41.6491 53.3701Z" stroke="#F18701" stroke-width="3" stroke-linecap="round" stroke-linejoin="round"/>
<path d="M30.7946 49.3451L18.4132 48.2632L13.4429 65.4136L31.9946 60.8187L30.8243 49.3726C30.8243 49.3726 30.8054 49.3551 30.7946 49.3451Z" stroke="#F18701" stroke-width="3" stroke-linecap="round" stroke-linejoin="round"/>
<path d="M52.5521 29.1837L64.9334 30.2656L69.9038 13.1152L51.3521 17.7102L52.5223 29.1562C52.5223 29.1562 52.5413 29.1737 52.5521 29.1837Z" stroke="#F18701" stroke-width="3" stroke-linecap="round" stroke-linejoin="round"/>
<path d="M30.7921 29.1837C30.7921 29.1837 30.8111 29.1662 30.8219 29.1562L31.9922 17.7102L13.4404 13.1152L18.4108 30.2656L30.7921 29.1837Z" stroke="#F18701" stroke-width="3" stroke-linecap="round" stroke-linejoin="round"/>
<path d="M81.5465 39.3829L64.9138 30.5054L56.9866 39.3654V39.4029L64.83 48.168L52.5487 49.2424C52.5487 49.2424 52.5297 49.2599 52.5189 49.2699L51.3486 60.7159L69.9004 65.3109L64.9516 48.2429L81.5438 39.3879L81.5465 39.3829Z" stroke="#F18701" stroke-width="3" stroke-linecap="round" stroke-linejoin="round"/>
<path d="M26.3568 39.4053V39.3678L18.4296 30.5078L1.79688 39.3828L18.4296 48.2604L26.3568 39.4028V39.4053Z" stroke="#F18701" stroke-width="3" stroke-linecap="round" stroke-linejoin="round"/>
<path d="M26.8529 39.2128C26.8529 31.7036 33.4491 25.5517 41.671 25.5517C49.893 25.5517 56.4891 31.7036 56.4891 39.2128C56.4891 46.722 49.893 52.8739 41.671 52.8739C33.4491 52.8739 26.8529 46.722 26.8529 39.2128Z" fill="url(#paint0_radial_32_728)" stroke="#F18701" stroke-width="0.996875"/>
<path d="M115.608 55.6411C113.152 55.6411 110.951 55.2424 109.005 54.4449C107.059 53.6474 105.496 52.4671 104.316 50.904C103.167 49.3409 102.561 47.4588 102.497 45.2577H111.206C111.334 46.5018 111.764 47.4588 112.498 48.1287C113.232 48.7667 114.189 49.0857 115.369 49.0857C116.581 49.0857 117.538 48.8145 118.24 48.2722C118.942 47.698 119.293 46.9165 119.293 45.9276C119.293 45.0982 119.006 44.4123 118.432 43.87C117.889 43.3277 117.203 42.8811 116.374 42.5302C115.576 42.1793 114.428 41.7806 112.929 41.334C110.76 40.6641 108.989 39.9942 107.617 39.3243C106.246 38.6544 105.065 37.6655 104.077 36.3576C103.088 35.0497 102.593 33.343 102.593 31.2376C102.593 28.1114 103.726 25.6711 105.991 23.9166C108.255 22.1302 111.206 21.237 114.843 21.237C118.543 21.237 121.526 22.1302 123.791 23.9166C126.056 25.6711 127.268 28.1274 127.427 31.2855H118.575C118.511 30.2009 118.113 29.3555 117.379 28.7494C116.645 28.1114 115.704 27.7924 114.556 27.7924C113.567 27.7924 112.769 28.0636 112.163 28.6059C111.557 29.1163 111.254 29.8659 111.254 30.8548C111.254 31.9394 111.764 32.7848 112.785 33.3909C113.806 33.997 115.401 34.6509 117.57 35.3527C119.739 36.0864 121.494 36.7882 122.834 37.4581C124.205 38.128 125.386 39.101 126.375 40.377C127.364 41.653 127.858 43.2958 127.858 45.3055C127.858 47.2195 127.364 48.9581 126.375 50.5212C125.418 52.0843 124.014 53.3284 122.164 54.2535C120.314 55.1786 118.128 55.6411 115.608 55.6411ZM145.047 55.689C142.432 55.689 140.071 55.1307 137.966 54.0142C135.892 52.8977 134.249 51.3027 133.037 49.2292C131.857 47.1557 131.267 44.7313 131.267 41.956C131.267 39.2126 131.873 36.8042 133.085 34.7307C134.297 32.6253 135.956 31.0143 138.061 29.8978C140.167 28.7813 142.527 28.2231 145.143 28.2231C147.759 28.2231 150.119 28.7813 152.225 29.8978C154.33 31.0143 155.989 32.6253 157.201 34.7307C158.413 36.8042 159.02 39.2126 159.02 41.956C159.02 44.6994 158.398 47.1238 157.153 49.2292C155.941 51.3027 154.266 52.8977 152.129 54.0142C150.024 55.1307 147.663 55.689 145.047 55.689ZM145.047 48.6072C146.61 48.6072 147.934 48.033 149.019 46.8846C150.135 45.7362 150.694 44.0933 150.694 41.956C150.694 39.8187 150.151 38.1759 149.067 37.0275C148.014 35.8791 146.706 35.3049 145.143 35.3049C143.548 35.3049 142.224 35.8791 141.172 37.0275C140.119 38.144 139.592 39.7868 139.592 41.956C139.592 44.0933 140.103 45.7362 141.124 46.8846C142.176 48.033 143.484 48.6072 145.047 48.6072ZM171.543 19.8972V55.3062H163.36V19.8972H171.543ZM213.308 55.3062L210.198 52.2916C207.103 54.6522 203.403 55.8325 199.097 55.8325C196.513 55.8325 194.264 55.4178 192.35 54.5884C190.436 53.7271 188.952 52.5309 187.9 50.9997C186.879 49.4366 186.368 47.6183 186.368 45.5448C186.368 43.4394 186.927 41.5413 188.043 39.8506C189.192 38.128 190.898 36.7244 193.163 35.6398C192.334 34.619 191.744 33.6461 191.393 32.721C191.042 31.764 190.866 30.7272 190.866 29.6107C190.866 28.0157 191.281 26.5643 192.11 25.2564C192.94 23.9485 194.136 22.9277 195.699 22.194C197.294 21.4284 199.176 21.0456 201.345 21.0456C203.547 21.0456 205.413 21.4443 206.944 22.2418C208.475 23.0393 209.624 24.108 210.389 25.4478C211.155 26.7876 211.506 28.255 211.442 29.85H203.738C203.77 28.9887 203.547 28.3347 203.068 27.8881C202.621 27.4096 202.015 27.1704 201.25 27.1704C200.484 27.1704 199.846 27.3937 199.336 27.8403C198.825 28.2869 198.57 28.8611 198.57 29.5629C198.57 30.2328 198.778 30.9346 199.192 31.6683C199.639 32.402 200.325 33.2473 201.25 34.2043L209.432 42.1953C209.496 42.0358 209.576 41.8444 209.671 41.6211C209.799 41.3978 209.927 41.1426 210.054 40.8555L211.825 37.8409H220.007L217.71 42.0039C216.849 43.886 215.86 45.6724 214.743 47.3631L222.83 55.3062H213.308ZM199.479 49.2292C201.617 49.2292 203.515 48.6231 205.173 47.4109L197.709 40.1856C195.412 41.3659 194.264 42.9609 194.264 44.9706C194.264 46.1828 194.726 47.2036 195.651 48.033C196.608 48.8305 197.884 49.2292 199.479 49.2292ZM256.266 38.0802C258.212 38.4949 259.775 39.4678 260.955 40.999C262.136 42.4983 262.726 44.2209 262.726 46.1668C262.726 48.974 261.737 51.207 259.759 52.8658C257.813 54.4927 255.086 55.3062 251.577 55.3062H235.93V21.7155H251.05C254.464 21.7155 257.127 22.497 259.041 24.0601C260.987 25.6232 261.96 27.7446 261.96 30.4242C261.96 32.402 261.434 34.0448 260.381 35.3527C259.36 36.6606 257.989 37.5698 256.266 38.0802ZM244.112 35.3049H249.471C250.811 35.3049 251.832 35.0178 252.534 34.4436C253.267 33.8375 253.634 32.9602 253.634 31.8118C253.634 30.6634 253.267 29.7862 252.534 29.1801C251.832 28.574 250.811 28.2709 249.471 28.2709H244.112V35.3049ZM250.141 48.7029C251.513 48.7029 252.566 48.3998 253.299 47.7937C254.065 47.1557 254.448 46.2466 254.448 45.0663C254.448 43.886 254.049 42.9609 253.252 42.291C252.486 41.6211 251.417 41.2861 250.046 41.2861H244.112V48.7029H250.141ZM265.845 41.9082C265.845 39.1648 266.355 36.7563 267.376 34.6828C268.429 32.6093 269.848 31.0143 271.635 29.8978C273.421 28.7813 275.415 28.2231 277.616 28.2231C279.498 28.2231 281.141 28.6059 282.544 29.3715C283.98 30.1371 285.08 31.1419 285.846 32.386V28.6059H294.028V55.3062H285.846V51.526C285.048 52.7701 283.932 53.775 282.496 54.5406C281.093 55.3062 279.45 55.689 277.568 55.689C275.399 55.689 273.421 55.1307 271.635 54.0142C269.848 52.8658 268.429 51.2549 267.376 49.1814C266.355 47.076 265.845 44.6516 265.845 41.9082ZM285.846 41.956C285.846 39.9144 285.272 38.3035 284.123 37.1232C283.007 35.9429 281.635 35.3527 280.008 35.3527C278.381 35.3527 276.994 35.9429 275.845 37.1232C274.729 38.2716 274.171 39.8666 274.171 41.9082C274.171 43.9498 274.729 45.5767 275.845 46.7889C276.994 47.9692 278.381 48.5593 280.008 48.5593C281.635 48.5593 283.007 47.9692 284.123 46.7889C285.272 45.6086 285.846 43.9976 285.846 41.956ZM298.321 41.9082C298.321 39.1648 298.831 36.7563 299.852 34.6828C300.905 32.6093 302.324 31.0143 304.111 29.8978C305.897 28.7813 307.891 28.2231 310.092 28.2231C311.847 28.2231 313.442 28.5899 314.877 29.3236C316.345 30.0573 317.493 31.0462 318.322 32.2903V19.8972H326.505V55.3062H318.322V51.4782C317.557 52.7542 316.456 53.775 315.021 54.5406C313.617 55.3062 311.974 55.689 310.092 55.689C307.891 55.689 305.897 55.1307 304.111 54.0142C302.324 52.8658 300.905 51.2549 299.852 49.1814C298.831 47.076 298.321 44.6516 298.321 41.9082ZM318.322 41.956C318.322 39.9144 317.748 38.3035 316.6 37.1232C315.483 35.9429 314.112 35.3527 312.485 35.3527C310.858 35.3527 309.47 35.9429 308.322 37.1232C307.205 38.2716 306.647 39.8666 306.647 41.9082C306.647 43.9498 307.205 45.5767 308.322 46.7889C309.47 47.9692 310.858 48.5593 312.485 48.5593C314.112 48.5593 315.483 47.9692 316.6 46.7889C317.748 45.6086 318.322 43.9976 318.322 41.956Z" fill="#F18701"/>
<defs>
<radialGradient id="paint0_radial_32_728" cx="0" cy="0" r="1" gradientUnits="userSpaceOnUse" gradientTransform="translate(41.6689 39.1915) rotate(164.527) scale(15.2273 14.2475)">
<stop offset="1" stop-color="#F18701"/>
</radialGradient>
</defs>
</svg>
