<svg width="20" height="21" viewBox="0 0 20 21" fill="none" xmlns="http://www.w3.org/2000/svg">
<path d="M17.9563 8.27799V15.3827C17.9563 16.0437 17.6938 16.6776 17.2264 17.145C16.759 17.6123 16.1251 17.8749 15.4642 17.8749H4.49854C3.83757 17.8749 3.20367 17.6123 2.73629 17.145C2.26892 16.6776 2.00635 16.0437 2.00635 15.3827V8.27799L9.72814 12.8217C9.80485 12.867 9.89229 12.8908 9.98135 12.8908C10.0704 12.8908 10.1578 12.867 10.2346 12.8217L17.9563 8.27799ZM15.4642 4.91553C16.0774 4.91543 16.6691 5.14143 17.1262 5.55028C17.5832 5.95913 17.8734 6.52213 17.9414 7.13158L9.98135 11.8139L2.0213 7.13158C2.08925 6.52213 2.3795 5.95913 2.83654 5.55028C3.29358 5.14143 3.88531 4.91543 4.49854 4.91553H15.4642Z" fill="#3D348B"/>
</svg>
