<svg width="16" height="16" viewBox="0 0 16 16" fill="none" xmlns="http://www.w3.org/2000/svg">
<path d="M4.75 8C5.99264 8 7 6.99264 7 5.75C7 4.50736 5.99264 3.5 4.75 3.5C3.50736 3.5 2.5 4.50736 2.5 5.75C2.5 6.99264 3.50736 8 4.75 8Z" fill="#3D348B"/>
<path d="M7.3125 9.25C6.4325 8.80312 5.46125 8.625 4.75 8.625C3.35687 8.625 0.5 9.47938 0.5 11.1875V12.5H5.1875V11.9978C5.1875 11.4041 5.4375 10.8087 5.875 10.3125C6.22406 9.91625 6.71281 9.54844 7.3125 9.25Z" fill="#3D348B"/>
<path d="M10.625 9C8.99781 9 5.75 10.005 5.75 12V13.5H15.5V12C15.5 10.005 12.2522 9 10.625 9Z" fill="#3D348B"/>
<path d="M10.625 8C12.1438 8 13.375 6.76878 13.375 5.25C13.375 3.73122 12.1438 2.5 10.625 2.5C9.10622 2.5 7.875 3.73122 7.875 5.25C7.875 6.76878 9.10622 8 10.625 8Z" fill="#3D348B"/>
</svg>
