<svg width="20" height="21" viewBox="0 0 20 21" fill="none" xmlns="http://www.w3.org/2000/svg">
<path d="M12.6792 14.1892L14.0749 12.7936C14.2628 12.608 14.5007 12.4809 14.7595 12.4278C15.0183 12.3747 15.2869 12.3979 15.5328 12.4945L17.2337 13.1737C17.4822 13.2745 17.6952 13.4467 17.846 13.6684C17.9968 13.8902 18.0786 14.1516 18.0811 14.4198V17.535C18.0796 17.7174 18.0413 17.8976 17.9683 18.0648C17.8954 18.232 17.7894 18.3828 17.6566 18.5079C17.5239 18.6331 17.3673 18.7301 17.1961 18.7931C17.0249 18.8561 16.8427 18.8838 16.6605 18.8745C4.74162 18.1331 2.33666 8.03975 1.88183 4.17686C1.86072 3.98717 1.88001 3.79515 1.93844 3.61345C1.99686 3.43174 2.0931 3.26447 2.22081 3.12263C2.34853 2.98079 2.50483 2.86759 2.67943 2.7905C2.85403 2.7134 3.04298 2.67415 3.23384 2.67532H6.24316C6.5117 2.67611 6.77386 2.75723 6.99592 2.90823C7.21799 3.05923 7.3898 3.27322 7.48925 3.52266L8.16838 5.22358C8.26822 5.46848 8.29369 5.73737 8.24161 5.99666C8.18953 6.25596 8.06221 6.49416 7.87554 6.68151L6.47992 8.07713C6.47992 8.07713 7.28365 13.5163 12.6792 14.1892Z" fill="#3D348B"/>
</svg>
