<svg width="20" height="20" viewBox="0 0 20 20" fill="none" xmlns="http://www.w3.org/2000/svg">
<path d="M9.98112 1.71143C6.7662 1.71143 4.16602 4.31161 4.16602 7.52653C4.16602 11.8879 9.98112 18.326 9.98112 18.326C9.98112 18.326 15.7962 11.8879 15.7962 7.52653C15.7962 4.31161 13.196 1.71143 9.98112 1.71143ZM9.98112 9.60335C9.43031 9.60335 8.90206 9.38455 8.51259 8.99507C8.12311 8.60559 7.9043 8.07734 7.9043 7.52653C7.9043 6.97572 8.12311 6.44747 8.51259 6.05799C8.90206 5.66851 9.43031 5.44971 9.98112 5.44971C10.5319 5.44971 11.0602 5.66851 11.4497 6.05799C11.8391 6.44747 12.0579 6.97572 12.0579 7.52653C12.0579 8.07734 11.8391 8.60559 11.4497 8.99507C11.0602 9.38455 10.5319 9.60335 9.98112 9.60335Z" fill="#3D348B"/>
</svg>
