<svg width="81" height="65" viewBox="0 0 81 65" fill="none" xmlns="http://www.w3.org/2000/svg">
<path d="M7.76376 9.90384C13.3758 3.81984 21.8678 0.73584 32.9998 0.73584H36.9998V12.0118L33.7838 12.6558C28.3038 13.7518 24.4918 15.9078 22.4518 19.0718C21.3873 20.7764 20.7836 22.728 20.6998 24.7358H32.9998C34.0606 24.7358 35.078 25.1573 35.8282 25.9074C36.5783 26.6576 36.9998 27.675 36.9998 28.7358V56.7358C36.9998 61.1478 33.4118 64.7358 28.9998 64.7358H4.99976C3.93889 64.7358 2.92148 64.3144 2.17133 63.5643C1.42119 62.8141 0.999761 61.7967 0.999761 60.7358V40.7358L1.01176 29.0598C0.975761 28.6158 0.215761 18.0958 7.76376 9.90384ZM72.9998 64.7358H48.9998C47.9389 64.7358 46.9215 64.3144 46.1713 63.5643C45.4212 62.8141 44.9998 61.7967 44.9998 60.7358V40.7358L45.0118 29.0598C44.9758 28.6158 44.2158 18.0958 51.7638 9.90384C57.3758 3.81984 65.8678 0.73584 76.9998 0.73584H80.9998V12.0118L77.7838 12.6558C72.3038 13.7518 68.4918 15.9078 66.4518 19.0718C65.3873 20.7764 64.7836 22.728 64.6998 24.7358H76.9998C78.0606 24.7358 79.0781 25.1573 79.8282 25.9074C80.5783 26.6576 80.9998 27.675 80.9998 28.7358V56.7358C80.9998 61.1478 77.4118 64.7358 72.9998 64.7358Z" fill="#F18701"/>
</svg>
