<svg width="96" height="98" viewBox="0 0 96 98" fill="none" xmlns="http://www.w3.org/2000/svg">
<rect x="0.113037" y="0.33667" width="95.5655" height="96.9954" rx="10" fill="#F18701"/>
<path d="M74.0822 36.3093H60.989C59.2532 36.3111 57.5891 37.0117 56.3618 38.2574C55.1344 39.5031 54.4441 41.1921 54.4424 42.9538V56.2427C54.4435 57.4172 54.9037 58.5432 55.722 59.3736C56.5402 60.2041 57.6496 60.6712 58.8068 60.6723V76.1761C58.8079 77.3505 59.2681 78.4765 60.0864 79.307C60.9046 80.1375 62.014 80.6045 63.1712 80.6057H71.9C73.0571 80.6045 74.1666 80.1375 74.9848 79.307C75.803 78.4765 76.2632 77.3505 76.2644 76.1761V60.6723C77.4215 60.6712 78.531 60.2041 79.3492 59.3736C80.1674 58.5432 80.6276 57.4172 80.6288 56.2427V42.9538C80.6271 41.1921 79.9368 39.5031 78.7094 38.2574C77.4821 37.0117 75.8179 36.3111 74.0822 36.3093ZM76.2644 56.2427H71.9V76.1761H63.1712V56.2427H58.8068V42.9538C58.8068 42.3664 59.0367 41.803 59.4459 41.3877C59.8552 40.9723 60.4102 40.739 60.989 40.739H74.0822C74.6609 40.739 75.216 40.9723 75.6252 41.3877C76.0345 41.803 76.2644 42.3664 76.2644 42.9538V56.2427Z" fill="white"/>
<path d="M58.8066 25.2352C58.8066 23.483 59.3186 21.7701 60.2777 20.3132C61.2368 18.8562 62.6001 17.7207 64.1951 17.0501C65.7901 16.3796 67.5451 16.2041 69.2384 16.546C70.9316 16.8878 72.4869 17.7316 73.7077 18.9706C74.9284 20.2096 75.7598 21.7883 76.0966 23.5068C76.4334 25.2254 76.2605 27.0068 75.5998 28.6256C74.9392 30.2445 73.8204 31.6281 72.3849 32.6016C70.9495 33.5751 69.2619 34.0947 67.5355 34.0947C65.2211 34.0924 63.0023 33.1582 61.3658 31.4973C59.7293 29.8363 58.809 27.5842 58.8066 25.2352ZM63.1711 25.2352C63.1711 26.1114 63.427 26.9678 63.9066 27.6963C64.3862 28.4247 65.0678 28.9925 65.8653 29.3278C66.6628 29.6631 67.5403 29.7508 68.3869 29.5799C69.2335 29.4089 70.0112 28.987 70.6216 28.3675C71.2319 27.748 71.6476 26.9587 71.816 26.0994C71.9844 25.2401 71.898 24.3495 71.5676 23.54C71.2373 22.7306 70.6779 22.0388 69.9602 21.552C69.2425 21.0653 68.3987 20.8055 67.5355 20.8055C66.3783 20.8067 65.2689 21.2737 64.4506 22.1042C63.6324 22.9347 63.1722 24.0607 63.1711 25.2352Z" fill="white"/>
<path d="M45.7134 49.5982V42.9538C45.7117 41.1921 45.0214 39.5031 43.7941 38.2574C42.5667 37.0117 40.9026 36.3111 39.1668 36.3093H26.0736C24.3379 36.3111 22.6737 37.0117 21.4464 38.2574C20.219 39.5031 19.5287 41.1921 19.527 42.9538V49.5982H15.1626V54.0278H50.0778V49.5982H45.7134ZM23.8914 42.9538C23.8914 42.3664 24.1213 41.803 24.5306 41.3877C24.9398 40.9723 25.4949 40.739 26.0736 40.739H39.1668C39.7456 40.739 40.3006 40.9723 40.7099 41.3877C41.1191 41.803 41.349 42.3664 41.349 42.9538V49.5982H23.8914V42.9538Z" fill="white"/>
<path d="M23.8914 25.2352C23.8914 23.483 24.4033 21.7701 25.3624 20.3132C26.3216 18.8562 27.6848 17.7207 29.2798 17.0501C30.8748 16.3796 32.6299 16.2041 34.3231 16.546C36.0163 16.8878 37.5716 17.7316 38.7924 18.9706C40.0131 20.2096 40.8445 21.7883 41.1813 23.5068C41.5181 25.2254 41.3452 27.0068 40.6846 28.6256C40.0239 30.2445 38.9051 31.6281 37.4696 32.6016C36.0342 33.5751 34.3466 34.0947 32.6202 34.0947C30.3059 34.0924 28.087 33.1582 26.4505 31.4973C24.8141 29.8363 23.8937 27.5842 23.8914 25.2352ZM28.2558 25.2352C28.2558 26.1114 28.5117 26.9678 28.9913 27.6963C29.4709 28.4247 30.1525 28.9925 30.95 29.3278C31.7475 29.6631 32.625 29.7508 33.4716 29.5799C34.3182 29.4089 35.0959 28.987 35.7063 28.3675C36.3167 27.748 36.7323 26.9587 36.9007 26.0994C37.0691 25.2401 36.9827 24.3495 36.6524 23.54C36.322 22.7306 35.7626 22.0388 35.0449 21.552C34.3272 21.0653 33.4834 20.8055 32.6202 20.8055C31.463 20.8067 30.3536 21.2737 29.5353 22.1042C28.7171 22.9347 28.2569 24.0607 28.2558 25.2352Z" fill="white"/>
</svg>
