<svg width="96" height="97" viewBox="0 0 96 97" fill="none" xmlns="http://www.w3.org/2000/svg">
<rect width="95.5654" height="96.9954" rx="10" fill="#F18701"/>
<path fill-rule="evenodd" clip-rule="evenodd" d="M66.6548 18.1289H29.0158V22.576H15.9287V43.4355C15.9287 51.4973 24.7635 58.1312 33.4332 58.8214C36.2793 61.927 41.2854 64.1829 45.7409 65.1448V70.5969C41.4802 71.9298 33.8694 75.0613 33.4332 78.4732H62.6737C62.2332 75.0613 53.8473 71.9254 49.5781 70.5969V65.1448C54.0506 64.1829 59.2812 61.927 62.1315 58.8214C70.797 58.1312 79.2421 51.4973 79.2421 43.4355V22.576H66.6548V18.1289ZM19.948 26.5271H28.7108V44.4966C28.7108 48.0422 29.6087 51.4153 31.1885 54.4519C24.6322 52.3254 19.948 46.8474 19.948 40.4377V26.5271ZM54.2708 48.4434L47.7315 44.7727L41.1838 48.4434L42.4332 40.6793L37.1391 35.184L44.4534 34.0496L47.7315 26.9929L51.0012 34.0496L58.3155 35.184L53.0214 40.6793L54.2708 48.4434ZM63.9908 55.0256C65.5791 51.851 66.4897 48.3399 66.4897 44.626V26.6435H75.2737V40.386C75.2737 47.0847 70.5682 52.8042 63.9908 55.0256Z" fill="white"/>
</svg>
