<svg width="97" height="98" viewBox="0 0 97 98" fill="none" xmlns="http://www.w3.org/2000/svg">
<rect x="0.875" y="0.171387" width="95.5654" height="96.9954" rx="10" fill="#F18701"/>
<path d="M48.375 57.2601C43.085 57.2601 42.625 54.7144 42.625 54.3H36.875C36.875 57.0233 38.7725 61.8484 45.5 62.9436V66.1406H51.25V62.9436C57 61.9372 59.875 58.1186 59.875 54.3C59.875 50.9846 58.38 45.4195 48.375 45.4195C42.625 45.4195 42.625 43.5546 42.625 42.4593C42.625 41.364 44.6375 39.4991 48.375 39.4991C52.1125 39.4991 52.3712 41.3937 52.4 42.4593H58.15C58.1111 40.4427 57.4067 38.4998 56.1526 36.9503C54.8985 35.4008 53.1695 34.337 51.25 33.934V30.6187H45.5V33.8452C39.75 34.8221 36.875 38.6407 36.875 42.4593C36.875 45.7747 38.37 51.3398 48.375 51.3398C54.125 51.3398 54.125 53.3527 54.125 54.3C54.125 55.2472 52.3425 57.2601 48.375 57.2601Z" fill="white"/>
<path d="M28.575 19.4543H19.875V25.3409H25.675V75.3763C25.675 76.1569 25.9805 76.9056 26.5244 77.4575C27.0682 78.0095 27.8059 78.3196 28.575 78.3196H69.175C69.9441 78.3196 70.6818 78.0095 71.2256 77.4575C71.7695 76.9056 72.075 76.1569 72.075 75.3763V25.3409H77.875V19.4543H28.575ZM66.275 72.4331H31.475V25.3409H66.275V72.4331Z" fill="white"/>
</svg>
