<svg width="25" height="17" viewBox="0 0 25 17" fill="none" xmlns="http://www.w3.org/2000/svg">
<path d="M24.1489 2.56026C24.0134 2.07701 23.7495 1.63949 23.3853 1.29423C23.0107 0.938349 22.5517 0.68378 22.0514 0.554549C20.1793 0.0610956 12.6788 0.0610957 12.6788 0.0610957C9.55195 0.0255199 6.42584 0.181991 3.31816 0.529627C2.81792 0.668405 2.35973 0.928663 1.98434 1.28725C1.61549 1.64214 1.34833 2.07977 1.20877 2.55926C0.873514 4.36535 0.710624 6.1992 0.722295 8.0361C0.710332 9.87134 0.872823 11.7046 1.20877 13.5129C1.34534 13.9904 1.61151 14.4261 1.98135 14.778C2.35119 15.1299 2.81175 15.3841 3.31816 15.5186C5.21521 16.0111 12.6788 16.0111 12.6788 16.0111C15.8097 16.0467 18.9397 15.8903 22.0514 15.5426C22.5517 15.4133 23.0107 15.1588 23.3853 14.8029C23.7541 14.451 24.0163 14.0134 24.1479 13.5369C24.4919 11.7315 24.6591 9.89685 24.6473 8.05902C24.6732 6.21341 24.5061 4.37115 24.1489 2.56026ZM10.2943 11.4494V4.62379L16.5347 8.03709L10.2943 11.4494Z" fill="#FF0000"/>
</svg>
